# xmcd
#
# Track frame offsets:
#	150
#	13617
#	26078
#	39134
#	48658
#	60956
#	74592
#	86182
#	97826
#	109652
#	122626
#	135445
#	147883
#	161159
#	172844
#	183897
#	195188
#	205609
#	218186
#	228936
#	239742
#	251671
#	263595
#	273466
#	284805
#	297368
#	310325
#	321544
#	332144
#	344568
#
# Disc length: 4771 seconds
#
# Revision: 1
# Processed by: cddbd v1.5.2PL0 Copyright (c) Steve Scherf et al.
# Submitted via: audiograbber 1.83.01
#
DISCID=c212a11e
DTITLE=Various Artist - Soul City Detroit CD1
DYEAR=2013
DGENRE=Soul
TTITLE0=Falcons - 1962 - I Found A Love
TTITLE1=Falcons - 1959 - Goddes Of Angels
TTITLE2=Sherri Taylor and Singin' Sammy Ward - 1960 - Oh Lover
TTITLE3=Sherri Taylor and Singin' Sammy Ward - 1960 - That's Why I Love You So Mu
TTITLE3=ch
TTITLE4=Contours - 1961 - The Stretch
TTITLE5=Contours - 1961 - Funny
TTITLE6=Contours - 1962 - Claudia
TTITLE7=Contours - 1962 - So Grateful
TTITLE8=Contours - 1962 - The Old Miner
TTITLE9=Contours - 1962 - You Better Get In Line
TTITLE10=Five Quails - 1962 - Get To School On Time
TTITLE11=Five Quails - 1962 - Been A Long Time
TTITLE12=Downbeats - 1962 - Request Of A Fool
TTITLE13=Downbeats - 1962 - Your Baby's Back
TTITLE14=Mack Rice - 1962 - Baby I'm Coming Home
TTITLE15=Mack Rice - 1962 - My Baby
TTITLE16=Joe Stubbs - 1962 - Keep On Loving Me
TTITLE17=Joe Stubbs - 1962 - What's My Destiny
TTITLE18=Bobby Williams - 1962 - Tell It To My Face
TTITLE19=Bobby Williams - 1962 - I'm Depending On Love
TTITLE20=Gino Parks - 1962 - For This I Thank You
TTITLE21=Gino Parks - 1961 - That's No Lie
TTITLE22=Gino Washington - 1962 - I'm A Coward
TTITLE23=Gino Washington - 1962 - Puppet On A String
TTITLE24=Singin' Sammy Ward - 1962 - Part Time Love
TTITLE25=Singin' Sammy Ward - 1962 - Someday Pretty Baby
TTITLE26=Singin' Sammy Ward - 1961 - What Makes You Love Him
TTITLE27=Wilson Pickett - 1962 - My Heart Belongs To You
TTITLE28=Marvin Gaye - 1962 - It Hurt Me Too
TTITLE29=Marvin Gaye - 1962 - Stubborn Kind Of Fellow
EXTD=
EXTT0=
EXTT1=
EXTT2=
EXTT3=
EXTT4=
EXTT5=
EXTT6=
EXTT7=
EXTT8=
EXTT9=
EXTT10=
EXTT11=
EXTT12=
EXTT13=
EXTT14=
EXTT15=
EXTT16=
EXTT17=
EXTT18=
EXTT19=
EXTT20=
EXTT21=
EXTT22=
EXTT23=
EXTT24=
EXTT25=
EXTT26=
EXTT27=
EXTT28=
EXTT29=
PLAYORDER=
